<svg xmlns="http://www.w3.org/2000/svg" width="102" height="111" viewBox="0 0 102 111">
    <g fill="none" fill-rule="evenodd">
        <g>
            <g>
                <g>
                    <g>
                        <path fill="#484BB0" d="M18.374 26.611L18.374 0 44.986 0 27.878 26.611z" transform="translate(-788 -4634) translate(789 4634) matrix(-1 0 0 1 67.1 0)"/>
                        <path fill="#6A6EF4" fill-rule="nonzero" d="M15.514 27.711L15.514 1.1 42.126 1.1 25.018 27.711zM7.603 26.611L0 3.802 15.206 3.802 15.206 26.611z" transform="translate(-788 -4634) translate(789 4634) matrix(-1 0 0 1 67.1 0)"/>
                        <path fill="#484BB0" fill-rule="nonzero" d="M11.833 3.802L15.397 3.802 15.397 26.242 11.833 26.242z" transform="translate(-788 -4634) translate(789 4634) matrix(-1 0 0 1 67.1 0)"/>
                    </g>
                    <path fill="#484BB0" fill-rule="nonzero" d="M77.098 103.743H16.886c-4.012 0-7.62-2.442-9.11-6.167-.86-2.155-.931-4.545-.197-6.746l.764-2.293V62.559c0-21.346 17.304-38.65 38.649-38.65 10.25 0 20.08 4.073 27.329 11.32 7.248 7.249 11.32 17.08 11.32 27.33v25.978l.764 2.293c.734 2.201.664 4.591-.198 6.746-1.49 3.725-5.097 6.167-9.11 6.167z" transform="translate(-788 -4634) translate(789 4634)"/>
                    <path fill="#6A6EF4" fill-rule="nonzero" d="M70.889 102.643H16.962c-3.593 0-6.824-2.423-8.158-6.118-.772-2.137-.835-4.509-.178-6.693l.685-2.275V61.785c0-21.175 15.497-38.342 34.614-38.342 9.18 0 17.985 4.04 24.477 11.23 6.491 7.19 10.138 16.943 10.138 27.112v25.772l.684 2.275c.658 2.184.595 4.556-.177 6.693-1.335 3.695-4.566 6.118-8.158 6.118z" transform="translate(-788 -4634) translate(789 4634)"/>
                    <path stroke="#CFD0DF" d="M65.608 109.534H9.192c-3.758 0-7.139-2.443-8.535-6.168-.807-2.154-.873-4.544-.185-6.746l.716-2.293V68.35C1.188 47.004 17.4 29.7 37.4 29.7c9.604 0 18.815 4.072 25.606 11.32s10.606 17.079 10.606 27.329v25.978l.716 2.293c.688 2.202.622 4.592-.185 6.746-1.396 3.725-4.777 6.168-8.535 6.168h0z" transform="translate(-788 -4634) translate(789 4634)"/>
                    <path stroke="#272848" stroke-linecap="round" stroke-width="4.4" d="M37.484 23.798c-.085 2.429 5.014 4.578 11.39 4.8 6.374.223 11.61-1.565 11.696-3.994" opacity=".57" transform="translate(-788 -4634) translate(789 4634)"/>
                    <path stroke="#272848" stroke-linecap="round" stroke-width="4.4" d="M37.484 22.698c-.085 2.429 5.014 4.578 11.39 4.8 6.374.223 11.61-1.565 11.696-3.994" transform="translate(-788 -4634) translate(789 4634)"/>
                    <path stroke="#CFD0DF" d="M17 29.611L17 3 43.611 3 26.504 29.611z" transform="translate(-788 -4634) translate(789 4634) matrix(-1 0 0 1 60.611 0)"/>
                </g>
                <g transform="translate(-788 -4634) translate(789 4634) translate(59 93)">
                    <path fill="#FFF" d="M41 5v6h-.125c-1.135 2.25-9.824 4-20.375 4C9.95 15 1.26 13.25.125 11H0V5h41z"/>
                    <ellipse cx="20.5" cy="4.5" fill="#DBDCEA" rx="20.5" ry="4.5"/>
                </g>
                <g transform="translate(-788 -4634) translate(789 4634) translate(56 83)">
                    <path fill="#FFF" d="M41 5v6h-.125c-1.135 2.25-9.824 4-20.375 4C9.95 15 1.26 13.25.125 11H0V5h41z"/>
                    <ellipse cx="20.5" cy="4.5" fill="#DBDCEA" rx="20.5" ry="4.5"/>
                </g>
                <path fill="#DBDCEA" d="M77.793 88.896c10.446-.933 18.111-11.061 17.12-22.62-.99-11.56-10.26-20.175-20.706-19.241-10.446.933-18.111 11.061-17.12 22.62.99 11.56 10.26 20.175 20.706 19.241z" transform="translate(-788 -4634) translate(789 4634)"/>
                <path fill="#FFF" d="M81.793 88.896c10.446-.933 18.111-11.061 17.12-22.62-.99-11.56-10.26-20.175-20.706-19.241-10.446.933-18.111 11.061-17.12 22.62.99 11.56 10.26 20.175 20.706 19.241z" transform="translate(-788 -4634) translate(789 4634) rotate(3 80 67.966)"/>
                <path fill="#272848" fill-rule="nonzero" d="M78.845 63.34c.465-.39 1.051-.6 1.653-.59h.002c.602-.01 1.188.2 1.654.59.364.295.582.74.595 1.215 0 .635.504 1.15 1.125 1.15.622 0 1.125-.515 1.125-1.15-.015-1.147-.52-2.23-1.381-2.963-.575-.498-1.259-.847-1.994-1.016V58.15c0-.635-.503-1.15-1.125-1.15-.621 0-1.125.515-1.125 1.15v2.425c-.735.17-1.418.519-1.993 1.017-.862.733-1.366 1.816-1.381 2.962v.253c0 1.319.698 2.564 1.867 3.331l4.05 2.66c.53.347.833.856.833 1.395v.254c-.013.475-.23.92-.595 1.215-.466.39-1.052.598-1.654.59H80.5c-.602.008-1.188-.2-1.654-.59-.364-.295-.582-.74-.595-1.215 0-.635-.504-1.15-1.125-1.15S76 71.812 76 72.447c.015 1.146.52 2.228 1.382 2.962.574.498 1.258.847 1.993 1.016v2.425c0 .635.504 1.15 1.125 1.15s1.125-.515 1.125-1.15v-2.425c.735-.17 1.419-.519 1.993-1.017.862-.733 1.367-1.816 1.382-2.962v-.253c0-1.319-.698-2.564-1.867-3.331l-4.05-2.66c-.53-.347-.833-.856-.833-1.395v-.253c.013-.475.23-.92.595-1.215z" transform="translate(-788 -4634) translate(789 4634) rotate(-6 80.5 68.5)"/>
            </g>
        </g>
    </g>
</svg>
