<svg xmlns="http://www.w3.org/2000/svg" xmlns:xlink="http://www.w3.org/1999/xlink" width="114" height="114" viewBox="0 0 114 114">
    <defs>
        <path id="n9a8pvmo1a" d="M46.78 93.558C20.943 93.558 0 72.614 0 46.778 0 20.944 20.944 0 46.78 0c25.835 0 46.779 20.944 46.779 46.778 0 25.836-20.944 46.78-46.78 46.78z"/>
    </defs>
    <g fill="none" fill-rule="evenodd">
        <g>
            <g>
                <path stroke="#CFD0DF" stroke-width="1.1" d="M105.6 52.8c0 29.16-23.639 52.8-52.8 52.8C23.64 105.6 0 81.96 0 52.8 0 23.638 23.64 0 52.8 0c29.161 0 52.8 23.639 52.8 52.8" transform="translate(-394 -4631) translate(395 4638)"/>
                <g transform="translate(-394 -4631) translate(395 4638) translate(12.427 .327)">
                    <mask id="ufb4culgpb" fill="#fff">
                        <use xlink:href="#n9a8pvmo1a"/>
                    </mask>
                    <path stroke="#6DC8F9" stroke-width="6.742" d="M46.78-3.37c13.848 0 26.386 5.612 35.461 14.687C91.317 20.393 96.93 32.93 96.93 46.778c0 13.849-5.613 26.386-14.689 35.462-9.075 9.075-21.613 14.689-35.462 14.689-13.848 0-26.386-5.614-35.461-14.69C2.242 73.165-3.371 60.628-3.371 46.78c0-13.849 5.613-26.386 14.689-35.462C20.393 2.242 32.931-3.37 46.779-3.37z"/>
                    <path fill="#FFF" d="M40.953 94.33c-25.836 0-46.78-20.943-46.78-46.779 0-25.834 20.944-46.778 46.78-46.778 25.835 0 46.779 20.944 46.779 46.778 0 25.836-20.944 46.78-46.78 46.78z" mask="url(#ufb4culgpb)"/>
                    <path stroke="#272848" stroke-linecap="round" stroke-linejoin="round" stroke-width="4.4" d="M46.973 28.273L46.973 52.198 63.473 60.173" mask="url(#ufb4culgpb)"/>
                </g>
                <path fill="#272848" d="M60.255 8.621v-5.41c0-.58-.47-1.049-1.049-1.049-.58 0-1.049.47-1.049 1.05v5.41c0 .578.47 1.047 1.05 1.047.578 0 1.048-.469 1.048-1.048M87.16 20.634l3.826-3.825c.41-.409.41-1.073 0-1.483-.41-.41-1.073-.41-1.483 0l-3.825 3.825c-.41.41-.41 1.074 0 1.483.41.41 1.073.41 1.483 0M97.692 48.155h5.408c.58 0 1.05-.47 1.05-1.05 0-.579-.47-1.048-1.05-1.048h-5.408c-.58 0-1.05.47-1.05 1.048 0 .58.47 1.05 1.05 1.05M85.678 75.06l3.825 3.826c.41.408 1.073.408 1.483 0 .41-.41.41-1.075 0-1.484l-3.825-3.825c-.41-.409-1.073-.409-1.483 0-.41.41-.41 1.074 0 1.484M58.157 85.59V91c0 .579.47 1.05 1.05 1.05.578 0 1.048-.471 1.048-1.05v-5.41c0-.578-.47-1.048-1.049-1.048-.58 0-1.049.47-1.049 1.048M31.252 73.577l-3.825 3.825c-.41.41-.41 1.074 0 1.484.409.408 1.073.408 1.483 0l3.825-3.825c.41-.41.41-1.075 0-1.484-.41-.409-1.074-.409-1.483 0M20.721 46.057h-5.41c-.578 0-1.047.47-1.047 1.048 0 .58.47 1.05 1.048 1.05h5.41c.578 0 1.049-.47 1.049-1.05 0-.579-.471-1.048-1.05-1.048M32.735 19.151l-3.825-3.825c-.41-.41-1.074-.41-1.483 0-.41.41-.41 1.074 0 1.483l3.825 3.825c.409.41 1.073.41 1.483 0 .41-.409.41-1.073 0-1.483" transform="translate(-394 -4631) translate(395 4638)"/>
            </g>
        </g>
    </g>
</svg>
